<mxfile host="app.diagrams.net" modified="2022-03-22T10:26:18.138Z" agent="5.0 (Macintosh; Intel Mac OS X 10_15_7) AppleWebKit/605.1.15 (KHTML, like Gecko) Version/15.4 Safari/605.1.15" etag="w__seG73udJvGr6dukyD" version="17.1.3" type="github">
  <diagram name="Page-1" id="2cc2dc42-3aac-f2a9-1cec-7a8b7cbee084">
    <mxGraphModel dx="1940" dy="1091" grid="1" gridSize="10" guides="1" tooltips="1" connect="1" arrows="1" fold="1" page="1" pageScale="1" pageWidth="827" pageHeight="1169" background="none" math="0" shadow="0">
      <root>
        <mxCell id="0" />
        <mxCell id="1" parent="0" />
        <mxCell id="7026571954dc6520-1" value="" style="strokeWidth=1;shadow=0;dashed=0;align=center;html=1;shape=mxgraph.mockup.containers.browserWindow;rSize=0;strokeColor=#666666;mainText=,;recursiveResize=0;rounded=0;labelBackgroundColor=none;fontFamily=Verdana;fontSize=12" parent="1" vertex="1">
          <mxGeometry x="10" y="20" width="1630" height="1020" as="geometry" />
        </mxCell>
        <mxCell id="UIvKcNndbHkxys9XbS3D-4" value="" style="rounded=0;whiteSpace=wrap;html=1;fillColor=#000000;" vertex="1" parent="7026571954dc6520-1">
          <mxGeometry y="110" width="210" height="790" as="geometry" />
        </mxCell>
        <mxCell id="7026571954dc6520-2" value="Page 1" style="strokeWidth=1;shadow=0;dashed=0;align=center;html=1;shape=mxgraph.mockup.containers.anchor;fontSize=17;fontColor=#666666;align=left;" parent="7026571954dc6520-1" vertex="1">
          <mxGeometry x="60" y="12" width="110" height="26" as="geometry" />
        </mxCell>
        <mxCell id="7026571954dc6520-3" value="https://www.default.com" style="strokeWidth=1;shadow=0;dashed=0;align=center;html=1;shape=mxgraph.mockup.containers.anchor;rSize=0;fontSize=17;fontColor=#666666;align=left;" parent="7026571954dc6520-1" vertex="1">
          <mxGeometry x="130" y="60" width="250" height="26" as="geometry" />
        </mxCell>
        <mxCell id="UIvKcNndbHkxys9XbS3D-7" value="" style="rounded=0;whiteSpace=wrap;html=1;fillColor=#FF3333;gradientColor=none;opacity=40;strokeColor=none;strokeWidth=2;" vertex="1" parent="7026571954dc6520-1">
          <mxGeometry y="110" width="210" height="90" as="geometry" />
        </mxCell>
        <mxCell id="UIvKcNndbHkxys9XbS3D-17" value="" style="rounded=0;whiteSpace=wrap;html=1;fillColor=#141922;strokeColor=none;" vertex="1" parent="7026571954dc6520-1">
          <mxGeometry x="210" y="110" width="1420" height="790" as="geometry" />
        </mxCell>
        <mxCell id="UIvKcNndbHkxys9XbS3D-18" value="LOGO" style="text;html=1;fontSize=24;fontStyle=1;verticalAlign=middle;align=center;opacity=40;fillColor=none;fontColor=#FFFFFF;" vertex="1" parent="7026571954dc6520-1">
          <mxGeometry x="55" y="135" width="100" height="40" as="geometry" />
        </mxCell>
        <mxCell id="UIvKcNndbHkxys9XbS3D-19" value="" style="rounded=0;whiteSpace=wrap;html=1;fillColor=#f5f5f5;strokeColor=none;opacity=60;fontColor=#333333;" vertex="1" parent="7026571954dc6520-1">
          <mxGeometry x="210" y="110" width="1420" height="90" as="geometry" />
        </mxCell>
        <mxCell id="UIvKcNndbHkxys9XbS3D-21" value="UPGRADE" style="strokeWidth=1;shadow=0;dashed=0;align=center;html=1;shape=mxgraph.mockup.buttons.button;strokeColor=#666666;fontColor=#ffffff;mainText=;buttonStyle=round;fontSize=17;fontStyle=1;fillColor=#008cff;whiteSpace=wrap;opacity=60;" vertex="1" parent="7026571954dc6520-1">
          <mxGeometry x="1460" y="130" width="150" height="50" as="geometry" />
        </mxCell>
        <mxCell id="UIvKcNndbHkxys9XbS3D-22" value="" style="rounded=0;whiteSpace=wrap;html=1;fillColor=#FF3333;gradientColor=none;opacity=20;strokeColor=none;strokeWidth=2;" vertex="1" parent="7026571954dc6520-1">
          <mxGeometry y="210" width="210" height="110" as="geometry" />
        </mxCell>
        <mxCell id="UIvKcNndbHkxys9XbS3D-23" value="HOME" style="text;strokeColor=none;fillColor=none;html=1;fontSize=24;fontStyle=1;verticalAlign=middle;align=center;fontColor=#FFFFFF;opacity=20;" vertex="1" parent="7026571954dc6520-1">
          <mxGeometry x="55" y="245" width="100" height="40" as="geometry" />
        </mxCell>
        <mxCell id="UIvKcNndbHkxys9XbS3D-24" value="" style="rounded=0;whiteSpace=wrap;html=1;fillColor=#FF3333;gradientColor=none;opacity=20;strokeColor=none;strokeWidth=2;" vertex="1" parent="7026571954dc6520-1">
          <mxGeometry y="820" width="210" height="70" as="geometry" />
        </mxCell>
        <mxCell id="UIvKcNndbHkxys9XbS3D-25" value="USER" style="text;strokeColor=none;fillColor=none;html=1;fontSize=24;fontStyle=1;verticalAlign=middle;align=center;fontColor=#FFFFFF;opacity=20;" vertex="1" parent="7026571954dc6520-1">
          <mxGeometry x="55" y="835" width="100" height="40" as="geometry" />
        </mxCell>
        <mxCell id="UIvKcNndbHkxys9XbS3D-5" value="" style="rounded=0;whiteSpace=wrap;html=1;gradientColor=none;fillColor=#282828;" vertex="1" parent="1">
          <mxGeometry x="10" y="920" width="1630" height="120" as="geometry" />
        </mxCell>
        <mxCell id="UIvKcNndbHkxys9XbS3D-8" value="" style="rounded=0;whiteSpace=wrap;html=1;fillColor=#FF3333;gradientColor=none;opacity=40;strokeColor=none;strokeWidth=2;" vertex="1" parent="1">
          <mxGeometry x="10" y="925" width="230" height="110" as="geometry" />
        </mxCell>
        <mxCell id="UIvKcNndbHkxys9XbS3D-9" value="" style="rounded=0;whiteSpace=wrap;html=1;fillColor=#FF3333;gradientColor=none;opacity=40;strokeColor=none;strokeWidth=2;" vertex="1" parent="1">
          <mxGeometry x="1410" y="925" width="230" height="110" as="geometry" />
        </mxCell>
        <mxCell id="UIvKcNndbHkxys9XbS3D-10" value="" style="rounded=0;whiteSpace=wrap;html=1;fillColor=#FF3333;gradientColor=none;opacity=40;strokeColor=none;strokeWidth=2;" vertex="1" parent="1">
          <mxGeometry x="500" y="925" width="700" height="110" as="geometry" />
        </mxCell>
      </root>
    </mxGraphModel>
  </diagram>
</mxfile>
